<svg width="32" height="32" viewBox="0 0 32 32" fill="none" xmlns="http://www.w3.org/2000/svg">
<rect x="0.5" y="0.5" width="31" height="31" rx="15.5" fill="#057AFF"/>
<rect x="0.5" y="0.5" width="31" height="31" rx="15.5" stroke="#057AFF"/>
<path d="M7.25 9.125C7.25 8.62772 7.44754 8.15081 7.79917 7.79917C8.15081 7.44754 8.62772 7.25 9.125 7.25H12.875C13.3723 7.25 13.8492 7.44754 14.2008 7.79917C14.5525 8.15081 14.75 8.62772 14.75 9.125V12.875C14.75 13.3723 14.5525 13.8492 14.2008 14.2008C13.8492 14.5525 13.3723 14.75 12.875 14.75H9.125C8.62772 14.75 8.15081 14.5525 7.79917 14.2008C7.44754 13.8492 7.25 13.3723 7.25 12.875V9.125ZM17.25 9.125C17.25 8.62772 17.4475 8.15081 17.7992 7.79917C18.1508 7.44754 18.6277 7.25 19.125 7.25H22.875C23.3723 7.25 23.8492 7.44754 24.2008 7.79917C24.5525 8.15081 24.75 8.62772 24.75 9.125V12.875C24.75 13.3723 24.5525 13.8492 24.2008 14.2008C23.8492 14.5525 23.3723 14.75 22.875 14.75H19.125C18.6277 14.75 18.1508 14.5525 17.7992 14.2008C17.4475 13.8492 17.25 13.3723 17.25 12.875V9.125ZM7.25 19.125C7.25 18.6277 7.44754 18.1508 7.79917 17.7992C8.15081 17.4475 8.62772 17.25 9.125 17.25H12.875C13.3723 17.25 13.8492 17.4475 14.2008 17.7992C14.5525 18.1508 14.75 18.6277 14.75 19.125V22.875C14.75 23.3723 14.5525 23.8492 14.2008 24.2008C13.8492 24.5525 13.3723 24.75 12.875 24.75H9.125C8.62772 24.75 8.15081 24.5525 7.79917 24.2008C7.44754 23.8492 7.25 23.3723 7.25 22.875V19.125ZM17.25 19.125C17.25 18.6277 17.4475 18.1508 17.7992 17.7992C18.1508 17.4475 18.6277 17.25 19.125 17.25H22.875C23.3723 17.25 23.8492 17.4475 24.2008 17.7992C24.5525 18.1508 24.75 18.6277 24.75 19.125V22.875C24.75 23.3723 24.5525 23.8492 24.2008 24.2008C23.8492 24.5525 23.3723 24.75 22.875 24.75H19.125C18.6277 24.75 18.1508 24.5525 17.7992 24.2008C17.4475 23.8492 17.25 23.3723 17.25 22.875V19.125Z" fill="#DBE1FF"/>
</svg>
