<svg width="32" height="32" viewBox="0 0 32 32" fill="none" xmlns="http://www.w3.org/2000/svg">
<path fill-rule="evenodd" clip-rule="evenodd" d="M9.125 21C9.125 20.8342 9.19085 20.6753 9.30806 20.5581C9.42527 20.4408 9.58424 20.375 9.75 20.375H22.25C22.4158 20.375 22.5747 20.4408 22.6919 20.5581C22.8092 20.6753 22.875 20.8342 22.875 21C22.875 21.1658 22.8092 21.3247 22.6919 21.4419C22.5747 21.5592 22.4158 21.625 22.25 21.625H9.75C9.58424 21.625 9.42527 21.5592 9.30806 21.4419C9.19085 21.3247 9.125 21.1658 9.125 21ZM9.125 16C9.125 15.8342 9.19085 15.6753 9.30806 15.5581C9.42527 15.4408 9.58424 15.375 9.75 15.375H22.25C22.4158 15.375 22.5747 15.4408 22.6919 15.5581C22.8092 15.6753 22.875 15.8342 22.875 16C22.875 16.1658 22.8092 16.3247 22.6919 16.4419C22.5747 16.5592 22.4158 16.625 22.25 16.625H9.75C9.58424 16.625 9.42527 16.5592 9.30806 16.4419C9.19085 16.3247 9.125 16.1658 9.125 16ZM9.125 11C9.125 10.8342 9.19085 10.6753 9.30806 10.5581C9.42527 10.4408 9.58424 10.375 9.75 10.375H22.25C22.4158 10.375 22.5747 10.4408 22.6919 10.5581C22.8092 10.6753 22.875 10.8342 22.875 11C22.875 11.1658 22.8092 11.3247 22.6919 11.4419C22.5747 11.5592 22.4158 11.625 22.25 11.625H9.75C9.58424 11.625 9.42527 11.5592 9.30806 11.4419C9.19085 11.3247 9.125 11.1658 9.125 11Z" fill="#394E6A"/>
</svg>
