<svg width="49" height="49" viewBox="0 0 49 49" fill="none" xmlns="http://www.w3.org/2000/svg">
<rect x="1" y="1" width="47" height="47" rx="7.5" fill="#057AFF"/>
<rect x="1" y="1" width="47" height="47" rx="7.5" stroke="#057AFF"/>
<path d="M31.8598 36.1211C30.2778 36.9414 28.31 37.3516 25.9565 37.3516C22.9096 37.3516 20.4682 36.3896 18.6323 34.4658C16.7963 32.542 15.8784 30.0176 15.8784 26.8926C15.8784 23.5332 16.9086 20.8184 18.9692 18.748C21.0395 16.6777 23.6518 15.6426 26.8061 15.6426C28.8373 15.6426 30.5219 15.9307 31.8598 16.5068V19.9639C30.4438 19.124 28.8813 18.7041 27.1723 18.7041C24.8969 18.7041 23.0512 19.4316 21.6352 20.8867C20.2289 22.3418 19.5258 24.2852 19.5258 26.7168C19.5258 29.0312 20.185 30.877 21.5034 32.2539C22.8217 33.6211 24.5551 34.3047 26.7036 34.3047C28.686 34.3047 30.4047 33.8359 31.8598 32.8984V36.1211Z" fill="#DBE1FF"/>
<a href="https://www.figma.com/design/fD7eTppOV8JI4pDbnCwFRa/Comfy-by-Shokhrukh?node-id=8-2">
<rect fill="black" fill-opacity="0" x="1.61859" y="-1.95117" width="18.6328" height="39.9023"/>
</a>
</svg>
